<?xml version="1.0" standalone="no"?>
<!DOCTYPE svg PUBLIC "-//W3C//DTD SVG 20010904//EN"
 "http://www.w3.org/TR/2001/REC-SVG-20010904/DTD/svg10.dtd">
<svg version="1.0" xmlns="http://www.w3.org/2000/svg"
 width="200.000000pt" height="200.000000pt" viewBox="0 0 200.000000 200.000000"
 preserveAspectRatio="xMidYMid meet">
<metadata>
Created by potrace 1.16, written by Peter Selinger 2001-2019
</metadata>
<g transform="translate(0.000000,200.000000) scale(0.100000,-0.100000)"
fill="#000000" stroke="none">
<path d="M547 1616 c-26 -7 -57 -21 -70 -31 -47 -39 -88 -89 -83 -101 3 -8 0
-13 -5 -11 -16 3 -73 -102 -113 -208 -85 -221 -121 -381 -113 -500 14 -222
129 -359 324 -386 98 -14 168 -1 244 44 139 83 212 257 223 532 4 109 -2 168
-15 159 -5 -3 -9 4 -9 16 0 12 5 18 10 15 6 -4 10 11 9 37 0 34 -2 39 -9 23
-6 -14 -7 -8 -4 20 13 92 -42 260 -105 321 -70 68 -188 97 -284 70z m-107
-684 c48 -35 50 -40 33 -74 -11 -21 -21 -28 -34 -25 -28 8 -23 -12 7 -25 23
-11 24 -13 7 -19 -16 -6 -15 -8 10 -18 15 -6 27 -13 27 -16 0 -4 -4 -3 -10 0
-5 3 -10 0 -10 -7 0 -17 -76 -48 -117 -48 -34 0 -43 13 -43 65 0 25 5 35 20
40 23 7 24 19 9 62 -8 24 -7 39 5 68 13 31 19 35 38 30 13 -4 39 -19 58 -33z
m354 -48 c3 -9 6 -29 6 -45 0 -26 3 -29 20 -24 12 4 20 2 20 -6 0 -7 -10 -10
-27 -6 -22 4 -32 0 -47 -20 -18 -24 -18 -27 -3 -38 21 -15 21 -37 2 -75 -10
-19 -24 -30 -38 -31 -12 0 -16 -3 -9 -6 19 -8 14 -23 -9 -23 -33 0 -59 -19
-59 -43 0 -33 -14 -51 -27 -35 -19 25 -51 123 -49 152 1 39 15 42 49 11 15
-14 27 -22 27 -17 0 5 -11 19 -25 32 -32 30 -32 44 1 36 20 -5 24 -3 22 11 -2
14 6 19 37 24 l40 6 -35 3 c-33 2 -33 3 -10 10 23 7 22 8 -10 9 -31 1 -33 3
-17 15 23 18 22 30 -3 23 -47 -12 -1 28 50 44 44 13 87 10 94 -7z"/>
<path d="M1300 1620 c-54 -12 -128 -61 -159 -106 -34 -50 -68 -150 -80 -238
-14 -99 -14 -157 -1 -136 8 12 10 10 10 -8 0 -13 -4 -20 -10 -17 -6 4 -10 -5
-10 -19 0 -14 5 -26 10 -26 6 0 10 -7 10 -16 0 -9 -6 -14 -13 -11 -11 4 -13
-15 -10 -101 8 -221 58 -367 159 -468 43 -44 75 -66 110 -78 191 -63 390 7
470 166 74 146 69 312 -15 573 -87 266 -179 418 -282 468 -45 21 -131 29 -189
17z m355 -680 c19 -36 19 -48 -1 -85 -14 -27 -14 -30 2 -42 10 -7 21 -13 26
-13 9 0 11 -61 2 -84 -4 -10 -18 -16 -37 -16 -41 0 -117 31 -117 48 0 7 -4 10
-10 7 -5 -3 -10 -1 -10 4 0 6 9 11 19 11 25 0 38 20 14 20 -13 1 -9 5 12 17
l30 16 -25 9 c-14 4 -30 20 -37 33 -10 23 -8 29 15 50 15 14 32 25 39 25 7 0
13 4 13 9 0 8 16 16 42 20 4 0 14 -12 23 -29z m-378 -44 c28 -8 62 -21 74 -30
l23 -15 -25 -10 c-17 -7 -19 -10 -6 -10 31 -2 18 -21 -15 -22 -28 0 -30 -2
-13 -9 17 -7 16 -9 -10 -10 -27 -2 -26 -3 12 -12 31 -7 41 -13 36 -24 -4 -12
0 -14 21 -8 27 7 34 -4 14 -24 -6 -6 -9 -15 -5 -19 4 -4 13 -1 19 5 21 21 28
13 24 -30 -4 -48 -28 -118 -50 -150 -14 -20 -15 -19 -22 16 -8 45 -27 66 -61
66 -18 0 -24 4 -19 15 3 9 0 15 -9 15 -17 0 -45 50 -45 78 0 11 7 23 16 26 14
5 13 9 -2 35 -15 25 -22 29 -46 24 -18 -4 -28 -1 -28 6 0 8 8 10 20 6 17 -5
20 -2 20 25 0 26 15 70 23 70 1 0 25 -6 54 -14z"/>
</g>
</svg>
