<?xml version="1.0" standalone="no"?>
<!DOCTYPE svg PUBLIC "-//W3C//DTD SVG 20010904//EN"
 "http://www.w3.org/TR/2001/REC-SVG-20010904/DTD/svg10.dtd">
<svg version="1.0" xmlns="http://www.w3.org/2000/svg"
 width="159.000000pt" height="165.000000pt" viewBox="0 0 159.000000 165.000000"
 preserveAspectRatio="xMidYMid meet">

<g transform="translate(0.000000,165.000000) scale(0.100000,-0.100000)"
fill="#000000" stroke="none">
<path d="M478 1577 c-97 -22 -112 -47 -97 -169 52 -444 62 -646 38 -760 -27
-127 -114 -241 -250 -328 -44 -28 -86 -62 -95 -75 -34 -52 14 -123 99 -146 59
-16 172 -7 229 19 62 27 139 100 190 179 23 35 46 62 52 60 6 -2 15 -26 19
-54 9 -57 31 -72 77 -50 22 11 26 20 32 82 3 39 11 84 18 100 30 77 30 116 -1
208 -16 48 -29 107 -29 130 0 62 81 571 93 583 2 2 19 -88 38 -199 28 -170 34
-226 34 -352 0 -82 -4 -189 -9 -236 -7 -66 -5 -112 8 -200 10 -63 21 -121 25
-129 5 -9 25 -16 49 -18 34 -3 41 0 47 18 9 27 17 18 39 -40 10 -25 31 -59 48
-77 74 -77 249 -116 340 -75 39 17 49 27 59 60 18 61 7 84 -58 123 -195 115
-242 395 -169 993 30 241 31 284 11 312 -23 34 -97 49 -240 49 -156 -1 -199
-14 -213 -67 l-8 -33 -12 33 c-8 23 -22 37 -48 48 -51 21 -241 28 -316 11z"/>
</g>
</svg>
