<?xml version="1.0" standalone="no"?>
<!DOCTYPE svg PUBLIC "-//W3C//DTD SVG 20010904//EN"
 "http://www.w3.org/TR/2001/REC-SVG-20010904/DTD/svg10.dtd">
<svg version="1.0" xmlns="http://www.w3.org/2000/svg"
 width="227.000000pt" height="101.000000pt" viewBox="0 0 227.000000 101.000000"
 preserveAspectRatio="xMidYMid meet">

<g transform="translate(0.000000,101.000000) scale(0.100000,-0.100000)"
fill="#000000" stroke="none">
<path d="M1018 885 c-14 -8 -39 -36 -56 -63 -27 -44 -38 -52 -118 -85 -218
-90 -373 -89 -493 4 -36 28 -66 24 -94 -13 -36 -49 -47 -91 -64 -260 -19 -180
-20 -257 -4 -286 25 -47 45 -50 416 -55 193 -3 415 -10 495 -17 350 -27 909
54 1012 147 29 26 19 153 -15 181 -7 6 -93 22 -190 37 -332 48 -474 114 -752
351 -52 44 -97 75 -107 74 -2 -1 -15 -7 -30 -15z m30 -37 c-2 -8 5 -12 17 -11
11 1 14 0 7 -3 -6 -3 -10 -10 -6 -15 8 -14 -3 -10 -20 7 -9 8 -14 20 -11 25 9
13 15 11 13 -3z m77 -48 c3 -6 -1 -7 -9 -4 -18 7 -21 14 -7 14 6 0 13 -4 16
-10z m-42 -47 c9 -2 14 -9 11 -15 -4 -7 -2 -8 4 -4 7 4 17 2 24 -4 36 -31 131
-100 137 -100 8 0 105 -69 133 -94 9 -8 31 -22 47 -31 30 -15 49 -54 37 -74
-4 -6 -26 2 -54 19 -26 16 -65 39 -87 51 -61 33 -95 59 -92 71 1 6 -4 13 -12
16 -8 3 -11 0 -7 -7 10 -15 1 -14 -37 6 -47 24 -87 55 -82 64 3 4 -3 5 -13 2
-11 -2 -26 2 -34 11 -9 8 -18 13 -21 10 -2 -3 -16 0 -30 7 -20 9 -37 7 -90
-10 -36 -11 -74 -18 -83 -14 -11 4 -15 2 -11 -4 7 -10 -33 -33 -58 -33 -8 0
-15 -5 -15 -11 0 -6 -9 -9 -20 -6 -11 3 -20 1 -20 -3 0 -15 -113 -32 -170 -26
-73 8 -152 35 -144 48 4 6 1 9 -7 6 -14 -5 -105 37 -114 52 -3 4 3 18 13 31
19 22 19 22 33 2 8 -11 26 -23 41 -26 15 -4 33 -13 40 -20 7 -7 33 -19 58 -26
55 -16 239 -12 258 6 7 7 25 16 40 19 35 8 126 43 182 72 42 21 98 27 143 15z
m-148 -143 c-3 -5 -14 -10 -23 -10 -15 0 -15 2 -2 10 20 13 33 13 25 0z m90 0
c-3 -5 -11 -10 -16 -10 -6 0 -7 5 -4 10 3 6 11 10 16 10 6 0 7 -4 4 -10z
m-725 -10 c24 -15 7 -18 -20 -3 -14 7 -18 13 -10 13 8 0 22 -4 30 -10z m760 0
c0 -5 -2 -10 -4 -10 -3 0 -8 5 -11 10 -3 6 -1 10 4 10 6 0 11 -4 11 -10z
m-679 -47 c13 -17 13 -17 -6 -3 -11 8 -22 16 -24 17 -2 2 0 3 6 3 6 0 17 -8
24 -17z m417 -14 c11 0 9 -3 -7 -10 -13 -5 -26 -7 -29 -4 -3 3 0 5 6 5 6 0 10
6 8 13 -1 6 -1 9 1 5 3 -5 12 -8 21 -9z m-451 -40 c55 -41 71 -59 53 -59 -6 0
-8 -5 -5 -10 4 -6 11 -8 16 -5 5 4 9 1 9 -5 0 -6 4 -9 9 -6 8 5 31 -35 31 -55
0 -6 -19 -7 -47 -4 -49 6 -120 12 -160 14 -22 1 -23 5 -23 72 0 121 19 130
117 58z m93 41 c12 -7 12 -10 1 -10 -8 0 -11 -6 -7 -16 5 -14 4 -15 -9 -4 -8
7 -13 16 -10 20 3 5 -1 11 -7 13 -9 4 -8 6 2 6 8 0 22 -4 30 -9z m310 0 c0 -5
-7 -10 -16 -10 -8 0 -12 5 -9 10 3 6 10 10 16 10 5 0 9 -4 9 -10z m435 -11
c15 -14 -7 -10 -35 7 l-25 15 25 -7 c14 -3 29 -10 35 -15z m315 11 c8 -5 11
-10 5 -10 -5 0 -17 5 -25 10 -8 5 -10 10 -5 10 6 0 17 -5 25 -10z m-415 -10
c-3 -5 -12 -10 -18 -10 -7 0 -6 4 3 10 19 12 23 12 15 0z m-505 -40 c0 -22
-25 -18 -34 6 -3 9 1 14 14 14 13 0 20 -7 20 -20z m984 12 c2 -4 -2 -16 -10
-27 -8 -10 -14 -14 -14 -8 0 6 -3 18 -6 27 -6 16 20 24 30 8z m99 -29 c-7 -2
-19 -2 -25 0 -7 3 -2 5 12 5 14 0 19 -2 13 -5z m-352 -23 c13 -10 18 -19 12
-20 -7 0 -13 4 -13 8 0 5 -10 14 -22 20 -13 6 -18 11 -12 11 7 1 22 -8 35 -19z
m307 2 c-11 -2 -18 -13 -19 -30 -1 -27 -1 -27 -8 3 -9 39 -6 44 22 37 18 -5
19 -7 5 -10z m92 -2 c0 -21 -24 -28 -35 -10 -3 6 -1 10 5 10 6 0 8 5 5 10 -3
6 1 10 9 10 9 0 16 -9 16 -20z m-432 -12 c-3 -7 -13 -15 -24 -17 -16 -3 -17
-1 -5 13 16 19 34 21 29 4z m536 -20 c-4 -6 -10 -5 -15 3 -14 22 -10 33 6 19
8 -7 12 -17 9 -22z m66 18 c0 -11 -19 -15 -25 -6 -3 5 1 10 9 10 9 0 16 -2 16
-4z m-1349 -53 c-12 -20 -14 -14 -5 12 4 9 9 14 11 11 3 -2 0 -13 -6 -23z m70
9 c-7 -2 -18 1 -23 6 -8 8 -4 9 13 5 13 -4 18 -8 10 -11z m259 4 c0 -9 -8 -12
-27 -8 l-28 6 25 7 c14 4 26 7 28 8 1 1 2 -5 2 -13z m323 7 c-7 -2 -21 -2 -30
0 -10 3 -4 5 12 5 17 0 24 -2 18 -5z m497 -3 c0 -5 -12 -10 -27 -10 -22 0 -25
2 -13 10 20 13 40 13 40 0z m170 -10 c-19 -12 -30 -12 -30 -1 0 10 31 20 40
14 2 -2 -2 -8 -10 -13z m246 -52 l7 -56 -41 -21 c-89 -46 -372 -102 -611 -122
-146 -13 -408 -7 -526 12 -39 6 -198 11 -363 10 -161 0 -304 4 -317 9 -17 7
-26 21 -34 58 -5 27 -7 59 -4 72 6 22 8 23 107 17 56 -4 162 -12 236 -18 74
-7 286 -12 470 -13 282 -1 371 3 560 22 273 28 382 46 446 77 27 12 52 20 56
16 4 -3 10 -32 14 -63z m-1146 52 c0 -5 -4 -10 -10 -10 -5 0 -10 5 -10 10 0 6
5 10 10 10 6 0 10 -4 10 -10z m794 -12 c-3 -4 -12 -8 -20 -8 -8 0 -13 4 -10 8
3 5 12 9 20 9 8 0 13 -4 10 -9z m-504 -6 c0 -14 -11 -21 -26 -15 -8 3 -11 9
-8 14 7 11 34 12 34 1z m120 -2 c0 -5 -4 -10 -10 -10 -5 0 -10 5 -10 10 0 6 5
10 10 10 6 0 10 -4 10 -10z m-576 -15 c3 -8 1 -15 -4 -15 -6 0 -10 7 -10 15 0
8 2 15 4 15 2 0 6 -7 10 -15z m106 5 c0 -5 -4 -10 -10 -10 -5 0 -10 5 -10 10
0 6 5 10 10 10 6 0 10 -4 10 -10z m497 -16 c-3 -3 -12 -4 -19 -1 -8 3 -5 6 6
6 11 1 17 -2 13 -5z"/>
<path d="M1135 660 c4 -6 11 -8 16 -5 14 9 11 15 -7 15 -8 0 -12 -5 -9 -10z"/>
<path d="M1320 550 c0 -5 5 -10 11 -10 5 0 7 5 4 10 -3 6 -8 10 -11 10 -2 0
-4 -4 -4 -10z"/>
<path d="M378 393 c7 -3 16 -2 19 1 4 3 -2 6 -13 5 -11 0 -14 -3 -6 -6z"/>
</g>
</svg>
