<?xml version="1.0" standalone="no"?>
<!DOCTYPE svg PUBLIC "-//W3C//DTD SVG 20010904//EN"
 "http://www.w3.org/TR/2001/REC-SVG-20010904/DTD/svg10.dtd">
<svg version="1.0" xmlns="http://www.w3.org/2000/svg"
 width="192.000000pt" height="78.000000pt" viewBox="0 0 192.000000 78.000000"
 preserveAspectRatio="xMidYMid meet">

<g transform="translate(0.000000,78.000000) scale(0.100000,-0.100000)"
fill="#000000" stroke="none">
<path d="M155 677 c-66 -56 -74 -271 -17 -442 6 -16 14 -43 19 -60 14 -52 57
-65 217 -65 126 0 142 2 175 23 34 21 46 22 196 20 93 -1 238 -11 345 -24 248
-30 438 -30 580 0 119 25 156 43 183 88 16 27 17 38 7 75 -21 76 -33 84 -228
152 -136 47 -168 54 -157 35 4 -6 -4 -22 -16 -36 -59 -62 -169 -89 -322 -80
-161 11 -315 56 -666 196 -181 73 -250 107 -258 126 -8 21 -28 18 -58 -8z"/>
</g>
</svg>
