<?xml version="1.0" standalone="no"?>
<!DOCTYPE svg PUBLIC "-//W3C//DTD SVG 20010904//EN"
 "http://www.w3.org/TR/2001/REC-SVG-20010904/DTD/svg10.dtd">
<svg version="1.0" xmlns="http://www.w3.org/2000/svg"
 width="171.000000pt" height="148.000000pt" viewBox="0 0 171.000000 148.000000"
 preserveAspectRatio="xMidYMid meet">

<g transform="translate(0.000000,148.000000) scale(0.100000,-0.100000)"
fill="#000000" stroke="none">
<path d="M224 1331 c-97 -59 -169 -249 -146 -381 15 -84 74 -245 139 -378 70
-143 82 -217 64 -396 -9 -94 -9 -121 1 -127 9 -6 110 -1 114 5 0 1 -5 100 -12
221 -21 380 -21 370 1 367 11 -1 38 -9 61 -17 35 -13 54 -34 152 -174 176
-250 247 -337 297 -367 40 -23 61 -27 183 -35 187 -11 342 2 453 40 47 16 96
34 108 41 39 20 8 37 -77 42 -123 7 -250 76 -454 245 -185 153 -308 293 -543
613 -175 239 -215 286 -262 306 -41 18 -42 18 -79 -5z"/>
</g>
</svg>
