<?xml version="1.0" standalone="no"?>
<!DOCTYPE svg PUBLIC "-//W3C//DTD SVG 20010904//EN"
 "http://www.w3.org/TR/2001/REC-SVG-20010904/DTD/svg10.dtd">
<svg version="1.0" xmlns="http://www.w3.org/2000/svg"
 width="190.000000pt" height="122.000000pt" viewBox="0 0 190.000000 122.000000"
 preserveAspectRatio="xMidYMid meet">

<g transform="translate(0.000000,122.000000) scale(0.100000,-0.100000)"
fill="#000000" stroke="none">
<path d="M173 1088 c-33 -36 -62 -103 -56 -127 5 -20 77 -71 100 -71 6 0 26
26 43 58 18 31 39 65 47 74 21 24 11 44 -36 68 -52 26 -73 25 -98 -2z"/>
<path d="M803 1002 c-10 -9 -40 -45 -66 -80 -27 -34 -50 -62 -53 -62 -3 0 -27
11 -54 25 -61 31 -70 31 -70 2 0 -13 -16 -50 -35 -82 -39 -64 -39 -79 0 -97
14 -6 25 -15 25 -20 0 -9 -99 -138 -106 -138 -2 0 -36 11 -77 24 -40 13 -118
32 -173 41 -54 9 -103 17 -108 18 -30 5 -48 -268 -25 -373 20 -95 21 -95 289
-125 472 -52 757 -69 1034 -61 308 8 414 25 436 67 6 10 10 34 10 54 0 31 -3
36 -17 30 -54 -20 -153 -36 -262 -42 -120 -6 -124 -5 -117 13 4 10 20 73 36
138 35 147 31 160 -49 182 -31 8 -69 20 -85 25 -88 28 -104 9 -151 -182 -21
-85 -39 -155 -40 -157 -3 -4 -111 35 -155 58 -25 12 -98 54 -162 93 l-117 70
19 26 c10 14 69 91 130 171 165 216 173 228 166 255 -8 30 -153 145 -183 145
-13 0 -31 -8 -40 -18z"/>
<path d="M343 978 c-6 -7 -20 -32 -33 -55 -31 -56 -22 -81 40 -115 55 -31 80
-34 98 -16 18 18 15 26 -18 43 -18 9 -30 23 -30 35 0 24 9 25 55 3 31 -15 37
-15 46 -3 21 33 6 64 -46 92 -54 30 -97 35 -112 16z"/>
</g>
</svg>
