<?xml version="1.0" standalone="no"?>
<!DOCTYPE svg PUBLIC "-//W3C//DTD SVG 20010904//EN"
 "http://www.w3.org/TR/2001/REC-SVG-20010904/DTD/svg10.dtd">
<svg version="1.0" xmlns="http://www.w3.org/2000/svg"
 width="225.000000pt" height="225.000000pt" viewBox="0 0 225.000000 225.000000"
 preserveAspectRatio="xMidYMid meet">
<metadata>
Created by potrace 1.16, written by Peter Selinger 2001-2019
</metadata>
<g transform="translate(0.000000,225.000000) scale(0.100000,-0.100000)"
fill="#000000" stroke="none">
<path d="M1695 2236 c-27 -7 -116 -41 -197 -75 l-147 -63 -33 20 c-48 30 -158
64 -183 58 -12 -3 -46 -28 -75 -56 -29 -27 -56 -50 -60 -50 -4 0 -15 -18 -25
-39 -17 -39 -18 -105 -1 -143 6 -14 -9 -28 -77 -73 -102 -66 -146 -83 -252
-96 -95 -11 -143 -27 -123 -41 8 -6 1 -7 -20 -3 -18 4 -32 2 -32 -3 0 -10
-117 -56 -248 -97 -83 -26 -162 -80 -162 -111 0 -7 -12 -24 -26 -37 -115 -107
139 -249 561 -313 171 -26 495 -26 580 0 82 24 146 58 213 110 92 72 179 115
295 147 149 40 200 64 245 113 49 53 57 94 38 178 -10 42 -13 89 -9 138 4 51
0 101 -11 154 -9 43 -16 99 -16 124 0 35 -8 57 -35 97 -19 29 -41 55 -48 58
-35 13 -106 15 -152 3z"/>
<path d="M1990 1196 c-51 -19 -263 -117 -276 -128 -8 -6 -41 10 -95 47 -46 30
-90 53 -96 50 -7 -2 -13 0 -13 4 0 13 -57 31 -94 31 -40 0 -84 -29 -80 -53 1
-11 0 -16 -3 -14 -3 3 -10 2 -17 -4 -6 -5 -24 -19 -39 -30 -29 -22 -77 -106
-77 -136 0 -10 9 -36 21 -57 11 -21 18 -40 15 -43 -16 -16 -249 -146 -286
-160 -25 -9 -61 -23 -80 -30 l-35 -14 28 -25 c15 -13 23 -24 16 -24 -7 0 -20
7 -29 15 -19 18 -64 29 -55 14 6 -8 -8 -13 -28 -10 -4 1 -10 -6 -13 -14 -3 -8
-10 -13 -14 -10 -13 8 -60 -17 -53 -28 3 -6 1 -7 -5 -3 -7 4 -12 2 -12 -3 0
-6 -5 -11 -11 -11 -5 0 -8 4 -5 8 3 5 -9 6 -27 4 -27 -4 -29 -6 -12 -12 11 -4
23 -6 27 -4 3 2 4 -5 1 -16 -3 -11 -13 -20 -22 -20 -14 0 -14 2 -1 10 25 16
-7 12 -40 -5 -17 -9 -47 -16 -69 -18 -21 -1 -37 -5 -35 -8 6 -10 -35 -19 -83
-19 -34 0 -46 -5 -68 -32 -15 -18 -32 -45 -37 -59 -5 -15 -18 -29 -29 -32 -22
-6 -26 -42 -8 -79 15 -33 90 -82 200 -129 264 -114 746 -171 939 -110 99 31
139 52 240 126 131 96 181 120 305 145 132 25 210 59 257 108 48 50 59 88 48
158 -13 80 -20 96 -36 90 -11 -4 -13 0 -7 22 9 29 8 125 -1 297 -5 93 -10 119
-34 165 l-27 55 -55 2 c-30 2 -71 -3 -90 -11z m-381 -572 c-7 -9 -33 -30 -58
-47 -25 -17 -62 -48 -81 -68 -24 -26 -55 -45 -100 -60 -88 -30 -150 -75 -179
-132 l-24 -46 -122 2 -123 2 10 25 c14 36 28 50 51 50 11 0 39 9 61 19 23 11
88 35 146 55 109 36 342 150 395 191 35 28 42 31 24 9z m-738 -376 c17 -10 23
-10 26 0 7 20 237 11 258 -10 3 -3 0 -17 -6 -32 -10 -22 -19 -26 -51 -26 -22
0 -58 4 -81 10 -23 5 -72 12 -109 15 -56 5 -69 10 -83 31 -15 23 -14 24 5 24
11 0 30 -6 41 -12z"/>
</g>
</svg>
