<?xml version="1.0" standalone="no"?>
<!DOCTYPE svg PUBLIC "-//W3C//DTD SVG 20010904//EN"
 "http://www.w3.org/TR/2001/REC-SVG-20010904/DTD/svg10.dtd">
<svg version="1.0" xmlns="http://www.w3.org/2000/svg"
 width="219.000000pt" height="236.000000pt" viewBox="0 0 219.000000 236.000000"
 preserveAspectRatio="xMidYMid meet">
<metadata>
Created by potrace 1.16, written by Peter Selinger 2001-2019
</metadata>
<g transform="translate(0.000000,236.000000) scale(0.100000,-0.100000)"
fill="#000000" stroke="none">
<path d="M726 2309 c-98 -11 -206 -53 -259 -99 -68 -60 -100 -154 -126 -370
-15 -114 -14 -117 9 -87 31 39 150 115 283 181 l118 59 16 58 c17 61 39 81 59
54 9 -12 8 -27 -3 -66 l-15 -51 42 -90 c47 -101 87 -248 92 -332 2 -31 4 -56
5 -56 7 0 130 212 151 262 25 59 27 73 27 208 0 131 -2 150 -23 196 -29 64
-64 98 -122 117 -60 19 -169 27 -254 16z"/>
<path d="M1567 1936 c-85 -31 -177 -131 -238 -260 -43 -93 -54 -143 -63 -304
l-6 -103 43 53 c55 68 204 188 284 229 59 30 64 35 80 85 16 51 34 71 54 58
13 -8 11 -46 -6 -94 l-15 -43 54 -96 c80 -143 136 -278 136 -328 0 -12 4 -23
8 -23 12 0 128 238 146 299 40 137 10 237 -108 356 -87 87 -146 128 -231 160
-75 28 -86 29 -138 11z"/>
<path d="M647 1855 c-96 -49 -176 -101 -220 -144 -80 -75 -117 -198 -90 -301
14 -55 13 -57 -15 -121 l-29 -64 -19 38 -18 37 -43 -142 c-108 -352 -109 -449
-7 -553 62 -63 105 -80 204 -80 108 0 167 27 216 98 47 68 69 135 119 356 24
108 48 210 55 226 10 27 5 24 -45 -25 -55 -53 -57 -54 -52 -25 3 17 9 50 12
75 5 32 19 59 46 92 59 71 92 141 97 207 4 59 -25 190 -69 308 -18 46 -24 53
-47 53 -15 -1 -58 -16 -95 -35z"/>
<path d="M1554 1432 c-95 -68 -180 -147 -209 -196 -29 -50 -42 -129 -35 -216
5 -57 2 -72 -24 -127 -16 -35 -33 -63 -37 -63 -7 0 -18 58 -20 105 l-1 30 -15
-35 c-156 -366 -200 -503 -189 -592 9 -84 73 -171 156 -213 81 -41 233 -25
300 31 35 30 73 92 102 167 29 75 128 368 128 379 0 5 -14 0 -31 -12 -16 -12
-32 -20 -35 -18 -2 3 3 36 12 74 14 61 20 72 54 96 24 17 48 47 66 85 26 51
29 69 29 153 0 85 -3 103 -32 170 -46 106 -115 224 -133 228 -9 1 -47 -19 -86
-46z"/>
</g>
</svg>
