<?xml version="1.0" standalone="no"?>
<!DOCTYPE svg PUBLIC "-//W3C//DTD SVG 20010904//EN"
 "http://www.w3.org/TR/2001/REC-SVG-20010904/DTD/svg10.dtd">
<svg version="1.0" xmlns="http://www.w3.org/2000/svg"
 width="164.000000pt" height="110.000000pt" viewBox="0 0 164.000000 110.000000"
 preserveAspectRatio="xMidYMid meet">
<metadata>
Created by potrace 1.16, written by Peter Selinger 2001-2019
</metadata>
<g transform="translate(0.000000,110.000000) scale(0.100000,-0.100000)"
fill="#000000" stroke="none">
<path d="M615 982 c-55 -34 -60 -46 -36 -95 33 -68 29 -77 -28 -77 -53 0 -61
10 -61 73 0 27 -13 36 -25 17 -16 -26 -102 -3 -150 40 -36 32 -62 34 -90 6
-20 -20 -24 -32 -19 -53 8 -34 27 -69 55 -105 32 -39 16 -53 -32 -26 -46 26
-79 73 -80 114 l-1 29 -13 -31 c-21 -47 -38 -200 -32 -277 8 -88 37 -150 81
-171 18 -8 94 -22 168 -30 74 -9 143 -19 154 -23 10 -3 78 -39 149 -79 159
-89 253 -127 369 -150 87 -17 91 -17 202 3 143 27 260 80 322 147 63 69 56
105 -31 159 -15 10 -38 22 -52 27 -23 9 -24 8 -13 -9 45 -72 -131 -173 -302
-174 -133 0 -289 51 -326 108 -20 31 -12 69 20 91 22 14 27 14 57 -1 53 -28
91 -15 168 57 37 36 82 68 101 74 l33 9 -78 54 -78 54 -19 -24 c-10 -13 -31
-50 -46 -81 -26 -55 -43 -70 -57 -48 -4 6 5 35 19 65 14 30 22 55 17 55 -12 0
-95 -55 -110 -73 -16 -20 -38 -22 -43 -5 -3 7 12 42 33 78 20 36 35 66 34 68
-6 7 -44 -18 -91 -58 -36 -32 -49 -38 -60 -29 -16 13 -11 42 17 108 l19 43
-38 -27 c-20 -16 -49 -39 -64 -53 -39 -36 -80 -15 -43 22 34 33 102 84 135
101 19 10 36 19 38 20 8 7 -30 65 -50 79 -30 21 -86 20 -123 -2z"/>
</g>
</svg>
