<?xml version="1.0" standalone="no"?>
<!DOCTYPE svg PUBLIC "-//W3C//DTD SVG 20010904//EN"
 "http://www.w3.org/TR/2001/REC-SVG-20010904/DTD/svg10.dtd">
<svg version="1.0" xmlns="http://www.w3.org/2000/svg"
 width="465.000000pt" height="373.000000pt" viewBox="0 0 465.000000 373.000000"
 preserveAspectRatio="xMidYMid meet">

<g transform="translate(0.000000,373.000000) scale(0.100000,-0.100000)"
fill="#000000" stroke="none">
<path d="M243 3566 c-26 -19 -72 -136 -110 -282 -25 -99 -28 -124 -28 -279 0
-156 3 -176 27 -247 25 -75 25 -77 7 -94 -11 -9 -19 -28 -19 -41 0 -13 31
-182 69 -376 39 -193 106 -539 151 -767 161 -828 221 -1126 231 -1158 6 -17
19 -37 29 -42 26 -14 495 -13 521 0 11 6 46 67 78 135 33 69 62 125 65 125 4
0 39 -26 79 -58 105 -85 269 -200 308 -216 56 -23 323 -74 479 -91 385 -42
1109 -35 1685 16 355 31 500 50 518 68 21 21 116 484 124 606 8 116 -46 303
-129 443 -51 87 -180 213 -258 251 -117 57 -148 61 -451 61 -254 0 -283 -2
-345 -21 -86 -27 -115 -41 -183 -92 l-54 -40 -51 13 c-157 39 -343 132 -506
253 -161 120 -491 461 -795 822 -283 336 -489 556 -615 658 -201 163 -442 288
-655 341 -105 26 -148 29 -172 12z m227 -173 c102 -33 256 -109 365 -180 201
-133 344 -273 660 -648 392 -464 521 -606 715 -783 218 -200 414 -326 606
-391 54 -19 103 -37 107 -41 4 -4 -8 -32 -27 -64 -27 -44 -82 -193 -112 -304
-11 -41 -284 36 -521 148 -263 124 -484 313 -643 550 -100 150 -205 293 -273
375 -77 91 -243 259 -327 329 -205 172 -451 290 -651 311 -63 7 -67 9 -82 41
-70 147 -66 384 10 617 l26 77 36 -6 c20 -4 70 -18 111 -31z m-28 -859 c247
-59 507 -240 750 -522 104 -120 178 -218 296 -392 152 -226 272 -347 477 -485
269 -181 661 -318 1056 -369 360 -47 792 -48 1177 -2 70 8 102 9 102 2 0 -11
-72 -389 -75 -393 -3 -5 -422 -43 -634 -58 -862 -61 -1720 -16 -1918 101 -68
40 -279 200 -349 265 -68 63 -70 64 -109 49 -21 -8 -41 -41 -100 -165 l-74
-155 -174 0 -175 0 -57 298 c-32 163 -126 643 -210 1067 -83 424 -150 773
-148 777 5 9 93 0 165 -18z m3278 -1055 c0 -6 -13 -28 -28 -48 -122 -155 -246
-390 -267 -504 -6 -29 -12 -37 -29 -37 -29 0 -458 69 -464 75 -8 8 19 98 53
178 83 192 215 309 380 336 78 13 355 13 355 0z m265 -33 c79 -37 148 -98 203
-180 50 -75 104 -198 117 -268 6 -34 5 -36 -22 -42 -49 -10 -421 -66 -440 -66
-14 0 -23 15 -36 68 -10 37 -37 106 -61 155 l-43 87 51 74 c87 126 145 196
163 196 10 0 41 -11 68 -24z m-341 -450 c9 -19 19 -47 22 -63 l6 -28 -52 4
c-50 3 -51 4 -45 29 11 44 34 92 43 92 6 0 17 -15 26 -34z"/>
</g>
</svg>
